<svg width="24" height="24" viewBox="0 0 24 24" fill="none" xmlns="http://www.w3.org/2000/svg">
<g clip-path="url(#clip0_1700_343)">
<path d="M11.9986 0.750977C9.01674 0.754727 6.15809 1.94092 4.0496 4.04941C1.94111 6.1579 0.75491 9.01655 0.75116 11.9984C0.75341 14.9812 1.93895 17.8413 4.0476 19.9511C6.15625 22.0608 9.01576 23.2478 11.9986 23.2515C14.9824 23.2493 17.8434 22.0629 19.9532 19.9531C22.0631 17.8432 23.2494 14.9822 23.2517 11.9984C23.2479 9.01508 22.0606 6.15515 19.9502 4.04641C17.8399 1.93768 14.9819 0.752476 11.9986 0.750977ZM11.9986 2.25045C13.2799 2.24858 14.5489 2.49948 15.7331 2.98877C16.9173 3.47807 17.9933 4.19614 18.8996 5.10188C19.8059 6.00763 20.5246 7.08324 21.0146 8.26714C21.5045 9.45103 21.7562 10.72 21.7551 12.0012C21.7554 13.2825 21.5033 14.5512 21.0131 15.7349C20.5229 16.9186 19.8042 17.9941 18.8981 18.8999C17.992 19.8058 16.9163 20.5241 15.7325 21.014C14.5486 21.5039 13.2798 21.7556 11.9986 21.7549C10.7173 21.756 9.44838 21.5044 8.26449 21.0144C7.08059 20.5244 6.00498 19.8057 5.09923 18.8994C4.19349 17.9932 3.47541 16.9171 2.98612 15.7329C2.49683 14.5488 2.24593 13.2797 2.24779 11.9984C2.2463 10.7175 2.4975 9.44887 2.98699 8.26517C3.47649 7.08148 4.19467 6.00597 5.10041 5.10023C6.00615 4.19448 7.08166 3.4763 8.26536 2.98681C9.44905 2.49731 10.7177 2.24612 11.9986 2.24761V2.25045ZM11.9901 6.00337C11.7919 6.0071 11.6031 6.08905 11.4651 6.23135C11.327 6.37365 11.2508 6.56477 11.2531 6.76302V7.39512C10.0428 7.62189 9.00532 8.40138 9.00532 9.75346C9.00532 10.6889 9.4305 11.4485 9.99741 11.8907C10.5643 12.3329 11.2049 12.5256 11.7662 12.7127C12.3302 12.9026 12.8149 13.0812 13.0899 13.2966C13.3677 13.5092 13.4981 13.6935 13.4981 14.2547C13.4981 15.5019 10.5048 15.5019 10.5048 14.2547C10.5111 14.1524 10.4964 14.0498 10.4615 13.9534C10.4267 13.857 10.3725 13.7687 10.3023 13.694C10.232 13.6193 10.1472 13.5598 10.0531 13.5191C9.95903 13.4784 9.85758 13.4574 9.75506 13.4574C9.65253 13.4574 9.55109 13.4784 9.45698 13.5191C9.36287 13.5598 9.27808 13.6193 9.20785 13.694C9.13761 13.7687 9.08341 13.857 9.04858 13.9534C9.01375 14.0498 8.99903 14.1524 9.00532 14.2547C9.00532 15.6039 10.0428 16.3863 11.2531 16.613V17.2423C11.2468 17.3446 11.2615 17.4472 11.2964 17.5436C11.3312 17.64 11.3854 17.7283 11.4556 17.803C11.5259 17.8777 11.6107 17.9372 11.7048 17.9779C11.7989 18.0186 11.9003 18.0396 12.0028 18.0396C12.1054 18.0396 12.2068 18.0186 12.3009 17.9779C12.395 17.9372 12.4798 17.8777 12.55 17.803C12.6203 17.7283 12.6745 17.64 12.7093 17.5436C12.7442 17.4472 12.7589 17.3446 12.7526 17.2423V16.6102C13.9629 16.3834 15.0004 15.6011 15.0004 14.2519C15.0004 13.3136 14.5752 12.554 14.0083 12.1146C13.4414 11.6724 12.8008 11.474 12.2395 11.2869C11.6755 11.0999 11.1907 10.9213 10.913 10.7087C10.638 10.4933 10.5048 10.3119 10.5048 9.75062C10.5048 8.50059 13.4981 8.50059 13.4981 9.75062C13.4981 9.94984 13.5772 10.1409 13.7181 10.2818C13.8589 10.4226 14.05 10.5018 14.2492 10.5018C14.4484 10.5018 14.6395 10.4226 14.7804 10.2818C14.9212 10.1409 15.0004 9.94984 15.0004 9.75062C15.0004 8.40138 13.9629 7.62189 12.7526 7.39229V6.76019C12.7537 6.65963 12.7347 6.55986 12.6966 6.4668C12.6584 6.37374 12.602 6.28928 12.5306 6.21844C12.4593 6.14759 12.3744 6.0918 12.281 6.05437C12.1877 6.01694 12.0878 5.99863 11.9873 6.00053L11.9901 6.00337Z" fill="black"/>
</g>
<defs>
<clipPath id="clip0_1700_343">
<rect width="24" height="24" fill="white"/>
</clipPath>
</defs>
</svg>
