<svg width="73" height="73" viewBox="0 0 73 73" fill="none" xmlns="http://www.w3.org/2000/svg">
<path d="M45.5 11.3002H41.5904C40.8488 9.205 38.8472 7.7002 36.5 7.7002C34.1528 7.7002 32.1512 9.205 31.406 11.3002H27.5C26.5064 11.3002 25.7 12.1066 25.7 13.1002V20.3002C25.7 21.2938 26.5064 22.1002 27.5 22.1002H45.5C46.4936 22.1002 47.3 21.2938 47.3 20.3002V13.1002C47.3 12.1066 46.4936 11.3002 45.5 11.3002Z" fill="#AB7843"/>
<path d="M54.5 14.9004H50.9V20.3004C50.9 23.2776 48.4772 25.7004 45.5 25.7004H27.5C24.5228 25.7004 22.1 23.2776 22.1 20.3004V14.9004H18.5C16.5164 14.9004 14.9 16.5168 14.9 18.5004V61.7004C14.9 63.72 16.4804 65.3004 18.5 65.3004H54.5C56.5196 65.3004 58.1 63.72 58.1 61.7004V18.5004C58.1 16.4808 56.5196 14.9004 54.5 14.9004ZM35.9744 46.7748L28.7744 53.9748C28.4216 54.324 27.9608 54.5004 27.5 54.5004C27.0392 54.5004 26.5784 54.324 26.2256 53.9748L22.6256 50.3748C21.9236 49.6728 21.9236 48.5316 22.6256 47.8296C23.3276 47.1276 24.4688 47.1276 25.1708 47.8296L27.5 50.1552L33.4256 44.2296C34.1276 43.5276 35.2688 43.5276 35.9708 44.2296C36.6728 44.9316 36.6764 46.0692 35.9744 46.7748ZM35.9744 32.3748L28.7744 39.5748C28.4216 39.924 27.9608 40.1004 27.5 40.1004C27.0392 40.1004 26.5784 39.924 26.2256 39.5748L22.6256 35.9748C21.9236 35.2728 21.9236 34.1316 22.6256 33.4296C23.3276 32.7276 24.4688 32.7276 25.1708 33.4296L27.5 35.7552L33.4256 29.8296C34.1276 29.1276 35.2688 29.1276 35.9708 29.8296C36.6728 30.5316 36.6764 31.6692 35.9744 32.3748ZM49.1 50.9004H41.9C40.9064 50.9004 40.1 50.094 40.1 49.1004C40.1 48.1068 40.9064 47.3004 41.9 47.3004H49.1C50.0936 47.3004 50.9 48.1068 50.9 49.1004C50.9 50.094 50.0936 50.9004 49.1 50.9004ZM49.1 36.5004H41.9C40.9064 36.5004 40.1 35.694 40.1 34.7004C40.1 33.7068 40.9064 32.9004 41.9 32.9004H49.1C50.0936 32.9004 50.9 33.7068 50.9 34.7004C50.9 35.694 50.0936 36.5004 49.1 36.5004Z" fill="#AB7843"/>
</svg>
