<svg width="24" height="24" viewBox="0 0 24 24" fill="none" xmlns="http://www.w3.org/2000/svg">
<path d="M9.06801 3.22757C7.70451 3.07518 6.29547 3.07518 4.93198 3.22757C4.0548 3.32561 3.3455 4.01637 3.24205 4.9008C3.07896 6.29522 3.07896 7.70389 3.24205 9.09831C3.3455 9.98275 4.0548 10.6735 4.93198 10.7715C6.29547 10.9239 7.70451 10.9239 9.06801 10.7715C9.94519 10.6735 10.6545 9.98275 10.7579 9.09831C10.921 7.70389 10.921 6.29522 10.7579 4.9008C10.6545 4.01637 9.94519 3.32561 9.06801 3.22757Z" fill="#1B1B1B"/>
<path d="M9.06801 13.2276C7.70451 13.0752 6.29547 13.0752 4.93198 13.2276C4.0548 13.3256 3.3455 14.0164 3.24205 14.9008C3.07896 16.2952 3.07896 17.7039 3.24205 19.0983C3.3455 19.9827 4.0548 20.6735 4.93198 20.7715C6.29547 20.9239 7.70451 20.9239 9.06801 20.7715C9.94519 20.6735 10.6545 19.9827 10.7579 19.0983C10.921 17.7039 10.921 16.2952 10.7579 14.9008C10.6545 14.0164 9.94519 13.3256 9.06801 13.2276Z" fill="#1B1B1B"/>
<path d="M19.068 3.22757C17.7045 3.07518 16.2955 3.07518 14.932 3.22757C14.0548 3.32561 13.3455 4.01637 13.2421 4.9008C13.079 6.29522 13.079 7.70389 13.2421 9.09831C13.3455 9.98275 14.0548 10.6735 14.932 10.7715C16.2955 10.9239 17.7045 10.9239 19.068 10.7715C19.9452 10.6735 20.6545 9.98275 20.7579 9.09831C20.921 7.70389 20.921 6.29522 20.7579 4.9008C20.6545 4.01637 19.9452 3.32561 19.068 3.22757Z" fill="#1B1B1B"/>
<path d="M19.068 13.2276C17.7045 13.0752 16.2955 13.0752 14.932 13.2276C14.0548 13.3256 13.3455 14.0164 13.2421 14.9008C13.079 16.2952 13.079 17.7039 13.2421 19.0983C13.3455 19.9827 14.0548 20.6735 14.932 20.7715C16.2955 20.9239 17.7045 20.9239 19.068 20.7715C19.9452 20.6735 20.6545 19.9827 20.7579 19.0983C20.921 17.7039 20.921 16.2952 20.7579 14.9008C20.6545 14.0164 19.9452 13.3256 19.068 13.2276Z" fill="#1B1B1B"/>
</svg>
