<svg width="24" height="24" viewBox="0 0 24 24" fill="none" xmlns="http://www.w3.org/2000/svg">
<path fill-rule="evenodd" clip-rule="evenodd" d="M11.1987 2.58752C11.697 2.31067 12.303 2.31067 12.8013 2.58752L20.0013 6.58752C20.5251 6.87853 20.85 7.43066 20.85 8.02988V15.9708C20.85 16.57 20.5251 17.1221 20.0013 17.4131L12.8013 21.4131C12.303 21.69 11.697 21.69 11.1987 21.4131L3.99868 17.4131C3.47486 17.1221 3.14999 16.57 3.14999 15.9708V8.02988C3.14999 7.43066 3.47487 6.87853 3.99868 6.58752L11.1987 2.58752ZM12.0728 3.89876C12.0275 3.87359 11.9725 3.87359 11.9271 3.89876L4.72715 7.89876C4.67953 7.92522 4.64999 7.97541 4.64999 8.02988V15.9708C4.64999 16.0252 4.67953 16.0754 4.72715 16.1019L11.9271 20.1019C11.9725 20.1271 12.0275 20.1271 12.0728 20.1019L19.2728 16.1019C19.3205 16.0754 19.35 16.0252 19.35 15.9708V8.02988C19.35 7.97541 19.3205 7.92521 19.2728 7.89876L12.0728 3.89876Z" fill="#1B1B1B"/>
<path fill-rule="evenodd" clip-rule="evenodd" d="M7.24999 12.0003C7.24999 9.37697 9.37664 7.25032 12 7.25032C14.6233 7.25032 16.75 9.37697 16.75 12.0003C16.75 14.6237 14.6233 16.7503 12 16.7503C9.37664 16.7503 7.24999 14.6237 7.24999 12.0003ZM12 8.75032C10.2051 8.75032 8.74999 10.2054 8.74999 12.0003C8.74999 13.7952 10.2051 15.2503 12 15.2503C13.7949 15.2503 15.25 13.7952 15.25 12.0003C15.25 10.2054 13.7949 8.75032 12 8.75032Z" fill="#1B1B1B"/>
</svg>
