<svg width="24" height="24" viewBox="0 0 24 24" fill="none" xmlns="http://www.w3.org/2000/svg">
<path d="M12 11.9434C11.2602 11.9434 10.5371 11.7241 9.92201 11.3131C9.30693 10.9021 8.82753 10.3179 8.54444 9.63449C8.26135 8.95104 8.18728 8.199 8.33159 7.47346C8.47591 6.74792 8.83214 6.08147 9.35522 5.55839C9.87831 5.0353 10.5448 4.67908 11.2703 4.53476C11.9958 4.39044 12.7479 4.46451 13.4313 4.7476C14.1148 5.03069 14.6989 5.51009 15.1099 6.12518C15.5209 6.74026 15.7402 7.4634 15.7402 8.20315C15.7391 9.19479 15.3447 10.1455 14.6435 10.8467C13.9423 11.5479 12.9916 11.9423 12 11.9434ZM12 5.50185C11.4657 5.50185 10.9435 5.66028 10.4992 5.9571C10.055 6.25393 9.70877 6.67581 9.50431 7.16941C9.29986 7.66301 9.24636 8.20615 9.35059 8.73015C9.45482 9.25415 9.7121 9.73548 10.0899 10.1133C10.4677 10.491 10.949 10.7483 11.473 10.8525C11.997 10.9568 12.5401 10.9033 13.0337 10.6988C13.5273 10.4944 13.9492 10.1481 14.246 9.70391C14.5429 9.25969 14.7013 8.73742 14.7013 8.20315C14.7005 7.48698 14.4156 6.80037 13.9092 6.29396C13.4028 5.78754 12.7162 5.50268 12 5.50185ZM18.4935 19.5372C18.3557 19.5372 18.2236 19.4824 18.1262 19.385C18.0287 19.2876 17.974 19.1555 17.974 19.0177V17.7335C17.9729 16.7471 17.5806 15.8014 16.8831 15.104C16.1856 14.4065 15.2399 14.0141 14.2535 14.013H9.74648C8.76007 14.0141 7.81438 14.4065 7.11689 15.104C6.4194 15.8014 6.02706 16.7471 6.02596 17.7335V19.0177C6.02596 19.1555 5.97123 19.2876 5.87381 19.385C5.77639 19.4824 5.64425 19.5372 5.50648 19.5372C5.36871 19.5372 5.23657 19.4824 5.13915 19.385C5.04173 19.2876 4.987 19.1555 4.987 19.0177V17.7335C4.98851 16.4717 5.49044 15.262 6.38269 14.3698C7.27494 13.4775 8.48465 12.9756 9.74648 12.9741H14.253C15.5149 12.9754 16.7247 13.4773 17.6171 14.3696C18.5095 15.2618 19.0115 16.4716 19.013 17.7335V19.0177C19.013 19.1555 18.9582 19.2876 18.8608 19.385C18.7634 19.4824 18.6313 19.5372 18.4935 19.5372Z" fill="black"/>
</svg>
