<svg width="24" height="30" viewBox="0 0 24 30" fill="none" xmlns="http://www.w3.org/2000/svg">
<path d="M23.9412 17.5234L21.8008 13.8161C21.7508 13.7296 21.6729 13.6627 21.5798 13.6265L17.0605 11.8693C17.2044 11.3834 17.2773 10.8792 17.277 10.3725C17.277 7.46273 14.9098 5.09549 12 5.09549C9.09029 5.09549 6.72305 7.46273 6.72305 10.3725C6.72277 10.8792 6.79572 11.3834 6.93961 11.8693L2.42032 13.6265C2.32722 13.6627 2.24926 13.7296 2.19931 13.8161L0.0588376 17.5234C0.0271832 17.5782 0.00775617 17.6391 0.00188957 17.7022C-0.00397704 17.7652 0.00385553 17.8287 0.0248499 17.8884C0.0458442 17.9481 0.0795034 18.0025 0.123518 18.048C0.167533 18.0935 0.220862 18.1289 0.279846 18.1518L2.14045 18.8752V24.9136C2.14046 25.0021 2.16719 25.0884 2.21713 25.1614C2.26707 25.2344 2.33789 25.2906 2.42032 25.3226L11.841 28.9856C11.9432 29.0254 12.0567 29.0254 12.159 28.9856L21.5797 25.3226C21.6621 25.2906 21.7329 25.2344 21.7828 25.1614C21.8328 25.0884 21.8595 25.0021 21.8595 24.9136V18.8752L23.7201 18.1518C23.7791 18.1288 23.8324 18.0934 23.8764 18.048C23.9204 18.0025 23.9541 17.9481 23.975 17.8884C23.9961 17.8287 24.004 17.7652 23.9981 17.7022C23.9923 17.6392 23.9729 17.5782 23.9412 17.5234ZM12.0001 5.97316C14.4259 5.97316 16.3994 7.94671 16.3994 10.3725C16.3994 12.7983 14.4259 14.7718 12.0001 14.7718C9.57433 14.7718 7.60077 12.7983 7.60077 10.3725C7.60077 7.94671 9.57427 5.97316 12.0001 5.97316ZM12.0001 15.6495C14.091 15.6495 15.9018 14.427 16.7554 12.6593L20.2186 14.0321L12.0001 17.2277L3.78153 14.0321L7.24477 12.6593C8.0983 14.427 9.9091 15.6495 12.0001 15.6495ZM1.0748 17.5191L2.77122 14.5809L11.3642 17.9222L9.6678 20.8604L1.0748 17.5191ZM3.01823 19.2165L9.70065 21.8148C9.79834 21.8528 9.90639 21.8546 10.0053 21.8198C10.1041 21.785 10.1873 21.716 10.2397 21.6253L11.5613 19.3363V27.9352L3.01823 24.6134V19.2165ZM20.982 24.6134L12.4389 27.9352V19.3363L13.7605 21.6253C13.8129 21.7161 13.8961 21.7851 13.9949 21.8199C14.0938 21.8546 14.2019 21.8529 14.2995 21.8149L20.982 19.2166V24.6134ZM14.3324 20.8604L12.6359 17.9222L21.229 14.5809L22.9254 17.5191L14.3324 20.8604ZM10.9082 13.223C11.212 13.223 11.4979 13.1045 11.7132 12.8892L15.1342 9.46826C15.5786 9.02372 15.5786 8.30041 15.1341 7.85576C14.9188 7.64046 14.6325 7.52186 14.328 7.52186C14.0235 7.52186 13.7371 7.64046 13.5218 7.85576L11.0036 10.374L10.3315 9.52827C10.2251 9.39374 10.0895 9.28512 9.93504 9.2106C9.78054 9.13608 9.61114 9.09759 9.4396 9.09805C9.1824 9.09849 8.93286 9.18565 8.73132 9.34544C8.23983 9.73628 8.15787 10.4541 8.54855 10.9455L9.98041 12.7474C10.0862 12.8946 10.2256 13.0145 10.3869 13.0972C10.5482 13.1799 10.7269 13.2231 10.9082 13.223ZM9.2774 10.0324C9.32339 9.99557 9.3806 9.97554 9.43955 9.97567C9.51991 9.97567 9.59457 10.0117 9.64437 10.0743L10.6224 11.3051C10.6609 11.3535 10.7092 11.3933 10.7641 11.4217C10.819 11.4502 10.8793 11.4667 10.941 11.4702C11.0027 11.4737 11.0645 11.4642 11.1223 11.4421C11.1801 11.4201 11.2326 11.3861 11.2763 11.3424L14.1423 8.47639C14.1918 8.4268 14.2577 8.39954 14.3279 8.39954C14.3981 8.39954 14.4639 8.42685 14.5134 8.47633C14.5626 8.52561 14.5902 8.59238 14.5902 8.662C14.5902 8.73162 14.5626 8.7984 14.5135 8.8477L11.0926 12.2686C11.0686 12.2931 11.0398 12.3125 11.0081 12.3257C10.9765 12.3389 10.9424 12.3456 10.9081 12.3454C10.8655 12.3457 10.8234 12.3356 10.7856 12.3159C10.7478 12.2962 10.7154 12.2676 10.6912 12.2325C10.686 12.2251 10.6806 12.2178 10.6749 12.2108L9.2356 10.3995C9.19259 10.3452 9.17283 10.2761 9.18067 10.2073C9.1885 10.1385 9.22329 10.0756 9.2774 10.0324ZM11.5613 3.47904V1.4237C11.5613 1.30731 11.6075 1.19569 11.6898 1.1134C11.7721 1.0311 11.8837 0.984863 12.0001 0.984863C12.1165 0.984863 12.2281 1.0311 12.3104 1.1134C12.3927 1.19569 12.4389 1.30731 12.4389 1.4237V3.47904C12.4389 3.59543 12.3927 3.70704 12.3104 3.78934C12.2281 3.87164 12.1165 3.91787 12.0001 3.91787C11.8837 3.91787 11.7721 3.87164 11.6898 3.78934C11.6075 3.70704 11.5613 3.59543 11.5613 3.47904ZM7.13018 2.78425C7.07198 2.68346 7.05622 2.56367 7.08634 2.45124C7.11647 2.33882 7.19002 2.24297 7.29082 2.18478C7.39162 2.12658 7.5114 2.11082 7.62383 2.14094C7.73625 2.17107 7.8321 2.24462 7.8903 2.34542L8.91794 4.12539C8.97613 4.22619 8.9919 4.34597 8.96177 4.4584C8.93165 4.57082 8.85809 4.66667 8.7573 4.72486C8.6565 4.78306 8.53671 4.79883 8.42429 4.7687C8.31186 4.73857 8.21601 4.66502 8.15782 4.56422L7.13018 2.78425ZM3.81242 5.57865C3.84122 5.52873 3.87958 5.48498 3.9253 5.44989C3.97101 5.4148 4.0232 5.38907 4.07887 5.37415C4.13453 5.35923 4.19259 5.35543 4.24973 5.36296C4.30687 5.37049 4.36196 5.38921 4.41187 5.41803L6.19184 6.44568C6.29181 6.50428 6.36454 6.60005 6.39416 6.71208C6.42378 6.82412 6.40788 6.94332 6.34994 7.04367C6.292 7.14403 6.19671 7.21739 6.08488 7.24776C5.97304 7.27812 5.85374 7.26301 5.753 7.20574L3.97303 6.1781C3.87224 6.1199 3.7987 6.02405 3.76858 5.91163C3.73846 5.79922 3.75423 5.67944 3.81242 5.57865ZM2.49701 10.257C2.49701 10.1406 2.54324 10.029 2.62554 9.94666C2.70784 9.86436 2.81946 9.81813 2.93584 9.81813H4.99113C5.23353 9.81813 5.42996 10.0146 5.42996 10.257C5.42996 10.4993 5.23353 10.6958 4.99113 10.6958H2.93584C2.81946 10.6958 2.70784 10.6496 2.62554 10.5673C2.54324 10.485 2.49701 10.3733 2.49701 10.257ZM15.0513 4.24086L16.079 2.46089C16.1078 2.41097 16.1461 2.36722 16.1918 2.33213C16.2376 2.29704 16.2897 2.2713 16.3454 2.25639C16.4011 2.24147 16.4591 2.23767 16.5163 2.2452C16.5734 2.25273 16.6285 2.27144 16.6784 2.30027C16.7283 2.32908 16.7721 2.36744 16.8072 2.41316C16.8422 2.45888 16.868 2.51106 16.8829 2.56672C16.8978 2.62239 16.9016 2.68044 16.8941 2.73758C16.8866 2.79472 16.8679 2.84981 16.8391 2.89972L15.8114 4.67969C15.7826 4.72962 15.7442 4.77337 15.6985 4.80847C15.6528 4.84356 15.6006 4.8693 15.5449 4.88422C15.4892 4.89913 15.4312 4.90293 15.374 4.8954C15.3169 4.88786 15.2618 4.86914 15.2119 4.84031C15.1111 4.7821 15.0376 4.68625 15.0075 4.57383C14.9773 4.46142 14.9931 4.34164 15.0513 4.24086ZM17.5323 7.24518C17.4741 7.14439 17.4583 7.02461 17.4884 6.91219C17.5186 6.79977 17.5921 6.70393 17.6929 6.64573L19.4729 5.61809C19.5736 5.56081 19.6929 5.54571 19.8047 5.57607C19.9166 5.60643 20.0119 5.6798 20.0698 5.78015C20.1277 5.88051 20.1436 5.99971 20.114 6.11174C20.0844 6.22377 20.0117 6.31954 19.9117 6.37815L18.1317 7.40579C18.0818 7.43463 18.0267 7.45336 17.9696 7.4609C17.9125 7.46843 17.8544 7.46464 17.7987 7.44972C17.743 7.4348 17.6909 7.40906 17.6451 7.37397C17.5994 7.33887 17.5611 7.29511 17.5323 7.24518ZM18.7781 10.0491H20.8334C21.0758 10.0491 21.2722 10.2456 21.2722 10.488C21.2722 10.7303 21.0758 10.9268 20.8334 10.9268H18.7781C18.6617 10.9268 18.5501 10.8806 18.4678 10.7983C18.3855 10.716 18.3392 10.6043 18.3392 10.488C18.3392 10.3716 18.3855 10.2599 18.4678 10.1776C18.5501 10.0954 18.6617 10.0491 18.7781 10.0491Z" fill="#111111"/>
</svg>
